<?xml version="1.0" encoding="UTF-8" standalone="no"?>
<svg
   xmlns:dc="http://purl.org/dc/elements/1.1/"
   xmlns:cc="http://creativecommons.org/ns#"
   xmlns:rdf="http://www.w3.org/1999/02/22-rdf-syntax-ns#"
   xmlns:svg="http://www.w3.org/2000/svg"
   xmlns="http://www.w3.org/2000/svg"
   viewBox="0 0 377.94666 104.84"
   height="104.84"
   width="377.94666"
   xml:space="preserve"
   id="svg2"
   version="1.1"><metadata
     id="metadata8"><rdf:RDF><cc:Work
         rdf:about=""><dc:format>image/svg+xml</dc:format><dc:type
           rdf:resource="http://purl.org/dc/dcmitype/StillImage" /></cc:Work></rdf:RDF></metadata><defs
     id="defs6" /><g
     transform="matrix(1.3333333,0,0,-1.3333333,0,104.84)"
     id="g10"><g
       transform="scale(0.1)"
       id="g12"><path
         id="path14"
         style="fill:#100f0d;fill-opacity:1;fill-rule:nonzero;stroke:none"
         d="m 1136.32,245.543 h -108.91 v 117.32 h 108.91 c 39.9,0 64.13,-19.949 64.13,-58.66 0,-38.723 -24.23,-58.66 -64.13,-58.66 z m -108.91,295.184 h 98.62 c 39.3,0 64.13,-19.954 64.13,-56.844 0,-36.938 -24.83,-56.887 -64.13,-56.887 h -98.62 z M 1214.34,397.98 c 27.24,19.36 41.73,50.2 41.73,85.903 0,73.195 -45.96,120.972 -130.04,120.972 H 962.695 V 181.41 h 173.625 c 84.67,0 130.04,47.188 130.04,122.195 0,37.493 -15.71,72.61 -52.02,94.375" /><path
         id="path16"
         style="fill:#100f0d;fill-opacity:1;fill-rule:nonzero;stroke:none"
         d="m 1448.95,440.93 c 33.88,0 58.66,-16.942 64.71,-51.414 h 64.73 c -7.83,88.906 -78.02,112.492 -129.44,112.492 -54.43,0 -130.04,-26.594 -130.04,-129.438 v -67.781 c 0,-102.793 75.61,-129.445 130.04,-129.445 51.42,0 121.61,23.594 129.44,112.5 h -64.08 c -6.07,-34.469 -31.48,-51.367 -65.36,-51.367 -39.31,0 -66.55,22.355 -66.55,69.543 v 65.312 c 0,47.188 27.24,69.598 66.55,69.598" /><path
         id="path18"
         style="fill:#100f0d;fill-opacity:1;fill-rule:nonzero;stroke:none"
         d="m 1829,306.02 c 0,-47.188 -27.24,-69.543 -66.55,-69.543 -39.3,0 -66.54,22.355 -66.54,69.543 v 65.312 c 0,47.188 27.24,69.598 66.54,69.598 39.31,0 66.55,-22.41 66.55,-69.598 z m -66.55,195.988 c -54.42,0 -130.03,-26.594 -130.03,-129.438 v -67.781 c 0,-102.793 75.61,-129.445 130.03,-129.445 54.49,0 130.09,26.652 130.09,129.445 v 67.781 c 0,102.844 -75.6,129.438 -130.09,129.438" /><path
         id="path20"
         style="fill:#100f0d;fill-opacity:1;fill-rule:nonzero;stroke:none"
         d="m 2274.51,502.008 c -32.65,0 -74.42,-13.891 -94.96,-44.133 -20.59,30.242 -60.49,44.133 -89.55,44.133 -29.65,0 -61.72,-18.762 -69.55,-35.703 v 27.234 h -63.53 V 181.41 h 63.53 v 189.922 c 0,47.188 28.43,68.965 63.5,68.965 35.11,0 63.53,-21.777 63.53,-68.965 V 181.41 h 63.55 v 189.922 c 0,47.188 28.42,68.965 63.48,68.965 35.07,0 63.54,-21.777 63.54,-68.965 V 181.41 h 63.49 v 191.16 c 0,96.192 -69.55,129.438 -127.03,129.438" /><path
         id="path22"
         style="fill:#100f0d;fill-opacity:1;fill-rule:nonzero;stroke:none"
         d="m 2668.31,306.02 c 0,-47.188 -27.23,-68.957 -66.54,-68.957 -39.31,0 -66.54,21.769 -66.54,68.957 v 65.312 c 0,47.188 27.23,68.965 66.54,68.965 39.31,0 66.54,-21.777 66.54,-68.965 z m -60.49,195.988 c -32.65,0 -63.53,-17.531 -72.59,-35.703 v 27.234 h -63.55 V 70.0938 h 63.55 V 211.059 c 9.06,-18.172 39.94,-35.715 72.59,-35.715 53.84,0 123.98,33.301 123.98,129.445 v 67.781 c 0,96.192 -70.14,129.438 -123.98,129.438" /><path
         id="path24"
         style="fill:#100f0d;fill-opacity:1;fill-rule:nonzero;stroke:none"
         d="m 2813.4,523.188 c -8.34,-8.348 -18.4,-12.52 -30.18,-12.52 -11.82,0 -21.9,4.172 -30.24,12.52 -8.35,8.339 -12.52,18.417 -12.52,30.242 0,11.781 4.17,21.836 12.52,30.183 8.34,8.395 18.42,12.582 30.24,12.582 11.78,0 21.84,-4.187 30.18,-12.582 8.4,-8.347 12.59,-18.402 12.59,-30.183 0,-11.825 -4.19,-21.903 -12.59,-30.242 z m 6.15,66.578 c -10.06,10.062 -22.17,15.089 -36.33,15.089 -14.21,0 -26.33,-5.027 -36.39,-15.089 -10.03,-10.059 -15.03,-22.164 -15.03,-36.336 0,-14.215 5,-26.336 15.03,-36.395 10.06,-10.012 22.18,-15.027 36.39,-15.027 14.16,0 26.27,5.015 36.33,15.027 10.06,10.059 15.1,22.18 15.1,36.395 0,14.172 -5.04,26.277 -15.1,36.336" /><path
         id="path26"
         style="fill:#100f0d;fill-opacity:1;fill-rule:nonzero;stroke:none"
         d="m 2782.2,556.484 h -12.36 v 16.313 h 13.79 c 6.85,0 10.28,-2.738 10.28,-8.199 0,-5.41 -3.89,-8.114 -11.71,-8.114 z m 4.95,-6.3 c 4.6,0.179 8.43,1.699 11.49,4.539 3.07,2.836 4.62,6.492 4.62,10.965 0,4.371 -1.69,7.878 -5.02,10.554 -3.29,2.653 -7.52,3.992 -12.64,3.992 h -24.57 v -54.476 h 8.81 v 23.074 h 5.2 c 5.24,0 9.63,-3.066 13.19,-9.199 l 8.05,-13.875 h 10.76 l -10.76,16.582 c -2.57,3.918 -5.62,6.543 -9.13,7.844" /><path
         id="path28"
         style="fill:#ffffff;fill-opacity:1;fill-rule:nonzero;stroke:none"
         d="m 302.418,786.301 -20.156,-20.156 -20.176,-20.176 -20.156,-20.156 -20.141,-20.157 -20.176,-20.152 -20.156,-20.18 20.156,-20.136 20.176,20.136 20.141,20.18 20.156,20.152 20.176,20.157 20.156,20.156 20.156,20.176 -20.156,20.156" /><path
         id="path30"
         style="fill:#ffffff;fill-opacity:1;fill-rule:nonzero;stroke:none"
         d="M 282.258,120.98 262.098,100.824 241.926,80.6484 221.785,60.4922 201.629,40.3359 181.453,20.1797 201.629,0.00390625 221.785,20.1797 l 20.141,20.1562 20.172,20.1563 20.16,20.1562 20.156,20.1756 20.172,20.156 -20.172,20.157 -20.156,-20.157" /><path
         id="path32"
         style="fill:#ffffff;fill-opacity:1;fill-rule:nonzero;stroke:none"
         d="m 262.102,181.461 -20.157,-20.156 -20.16,-20.176 -20.172,-20.156 -20.156,-20.16 20.156,-20.1567 20.172,20.1567 20.16,20.16 20.157,20.156 20.156,20.176 20.176,20.156 20.156,20.152 -20.156,20.18 -20.176,-20.18 -20.156,-20.152" /><path
         id="path34"
         style="fill:#ffffff;fill-opacity:1;fill-rule:nonzero;stroke:none"
         d="m 262.102,262.102 -20.157,-20.157 -20.16,-20.152 -20.172,-20.18 -20.156,-20.152 20.156,-20.156 20.172,20.156 20.16,20.152 20.157,20.18 20.156,20.152 20.176,20.157 20.156,20.16 -20.156,20.172 -20.176,-20.172 -20.156,-20.16" /><path
         id="path36"
         style="fill:#ffffff;fill-opacity:1;fill-rule:nonzero;stroke:none"
         d="m 262.102,342.758 -20.157,-20.156 -20.16,-20.168 -20.172,-20.164 -20.156,-20.157 20.156,-20.168 20.172,20.168 20.16,20.157 20.157,20.164 20.156,20.168 20.176,20.156 20.156,20.156 -20.156,20.176 -20.176,-20.176 -20.156,-20.156" /><path
         id="path38"
         style="fill:#ffffff;fill-opacity:1;fill-rule:nonzero;stroke:none"
         d="m 262.102,423.402 -20.157,-20.168 -20.16,-20.156 -20.172,-20.164 -20.156,-20.164 20.156,-20.156 20.172,20.156 20.16,20.164 20.157,20.164 20.156,20.156 20.176,20.168 20.156,20.157 -20.156,20.164 -20.176,-20.164 -20.156,-20.157" /><path
         id="path40"
         style="fill:#ffffff;fill-opacity:1;fill-rule:nonzero;stroke:none"
         d="m 584.684,241.945 -20.157,20.157 -20.175,20.175 -20.157,20.157 -20.156,20.16 -20.16,-20.16 20.16,-20.157 20.156,-20.175 20.157,-20.157 20.175,-20.152 20.157,-20.156 20.156,-20.176 20.176,20.176 -20.176,20.156 -20.156,20.152" /><path
         id="path42"
         style="fill:#ffffff;fill-opacity:1;fill-rule:nonzero;stroke:none"
         d="m 665.328,241.945 -20.156,20.157 -20.156,20.175 -20.176,20.157 -20.156,20.16 -20.157,-20.16 20.157,-20.157 20.156,-20.175 20.176,-20.157 20.156,-20.152 20.156,-20.156 20.156,-20.176 20.176,20.176 -20.176,20.156 -20.156,20.152" /><path
         id="path44"
         style="fill:#ffffff;fill-opacity:1;fill-rule:nonzero;stroke:none"
         d="m 766.137,221.781 -20.16,20.157 -20.157,20.175 -20.175,20.157 -20.157,20.156 -20.152,20.168 -20.18,-20.168 20.18,-20.156 20.152,-20.157 20.157,-20.175 20.175,-20.157 20.157,-20.156 20.16,-20.176 20.16,20.176 -20.16,20.156" /><path
         id="path46"
         style="fill:#ffffff;fill-opacity:1;fill-rule:nonzero;stroke:none"
         d="m 0,302.426 20.1563,-20.156 20.1718,-20.176 20.1602,-20.156 20.1562,-20.157 20.1605,-20.156 20.172,-20.156 20.16,20.156 -20.16,20.156 -20.172,20.157 L 80.6445,262.094 60.4883,282.27 40.3281,302.426 20.1563,322.582 0,302.426" /><path
         id="path48"
         style="fill:#ffffff;fill-opacity:1;fill-rule:nonzero;stroke:none"
         d="m 181.453,241.945 -20.156,20.157 -20.156,20.175 -20.176,20.157 -20.156,20.16 -20.1567,-20.16 20.1567,-20.157 20.156,-20.175 20.176,-20.157 20.156,-20.152 20.156,-20.156 20.156,-20.176 20.176,20.176 -20.176,20.156 -20.156,20.152" /><path
         id="path50"
         style="fill:#ffffff;fill-opacity:1;fill-rule:nonzero;stroke:none"
         d="m 262.102,241.945 -20.157,20.157 -20.175,20.175 -20.157,20.157 -20.156,20.16 -20.16,-20.16 20.16,-20.157 20.156,-20.175 20.157,-20.157 20.175,-20.152 20.157,-20.156 20.156,-20.176 20.176,20.176 -20.176,20.156 -20.156,20.152" /><path
         id="path52"
         style="fill:#ffffff;fill-opacity:1;fill-rule:nonzero;stroke:none"
         d="m 342.746,241.945 -20.156,20.157 -20.156,20.175 -20.176,20.157 -20.156,20.16 -20.157,-20.16 20.157,-20.157 20.156,-20.175 20.176,-20.157 20.156,-20.152 20.156,-20.156 20.156,-20.176 20.176,20.176 -20.176,20.156 -20.156,20.152" /><path
         id="path54"
         style="fill:#ffffff;fill-opacity:1;fill-rule:nonzero;stroke:none"
         d="m 423.391,241.945 -20.157,20.157 -20.16,20.175 -20.172,20.157 -20.156,20.16 -20.16,-20.16 20.16,-20.157 20.156,-20.175 20.172,-20.157 20.16,-20.152 20.157,-20.156 20.156,-20.176 20.176,20.176 -20.176,20.156 -20.156,20.152" /><path
         id="path56"
         style="fill:#ffffff;fill-opacity:1;fill-rule:nonzero;stroke:none"
         d="m 504.035,241.945 -20.156,20.157 -20.156,20.175 -20.176,20.157 -20.156,20.16 -20.157,-20.16 20.157,-20.157 20.156,-20.175 20.176,-20.157 20.156,-20.152 20.156,-20.156 20.156,-20.176 20.176,20.176 -20.176,20.156 -20.156,20.152" /><path
         id="path58"
         style="fill:#ffffff;fill-opacity:1;fill-rule:nonzero;stroke:none"
         d="m 544.363,584.691 -20.156,-20.156 -20.176,-20.176 -20.156,-20.156 -20.156,-20.156 20.156,-20.156 20.156,20.156 20.176,20.156 20.156,20.156 20.157,20.176 20.156,20.156 20.176,20.157 -20.176,20.175 -20.156,-20.175 -20.157,-20.157" /><path
         id="path60"
         style="fill:#ffffff;fill-opacity:1;fill-rule:nonzero;stroke:none"
         d="m 544.363,665.336 -20.156,-20.156 -20.176,-20.157 -20.156,-20.175 -20.156,-20.157 20.156,-20.156 20.156,20.156 20.176,20.157 20.156,20.175 20.157,20.157 20.156,20.156 20.176,20.16 -20.176,20.156 -20.156,-20.156 -20.157,-20.16" /><path
         id="path62"
         style="fill:#ffffff;fill-opacity:1;fill-rule:nonzero;stroke:none"
         d="m 584.688,786.301 -20.157,-20.156 -20.176,-20.176 -20.156,-20.156 -20.152,-20.157 -20.164,-20.152 -20.168,-20.18 20.168,-20.136 20.164,20.136 20.152,20.18 20.156,20.152 20.176,20.157 20.157,20.156 20.16,20.176 -20.16,20.156" /><path
         id="path64"
         style="fill:#ffffff;fill-opacity:1;fill-rule:nonzero;stroke:none"
         d="M 564.527,120.98 544.367,100.824 524.195,80.6484 504.039,60.4922 483.879,40.3359 463.723,20.1797 483.879,0.00390625 504.039,20.1797 l 20.156,20.1562 20.172,20.1563 20.16,20.1562 20.157,20.1756 20.171,20.156 -20.171,20.157 -20.157,-20.157" /><path
         id="path66"
         style="fill:#ffffff;fill-opacity:1;fill-rule:nonzero;stroke:none"
         d="m 544.363,181.461 -20.156,-20.156 -20.176,-20.176 -20.156,-20.156 -20.156,-20.16 20.156,-20.1567 20.156,20.1567 20.176,20.16 20.156,20.156 20.157,20.176 20.156,20.156 20.176,20.152 -20.176,20.18 -20.156,-20.18 -20.157,-20.152" /><path
         id="path68"
         style="fill:#ffffff;fill-opacity:1;fill-rule:nonzero;stroke:none"
         d="m 544.363,262.102 -20.156,-20.157 -20.176,-20.152 -20.156,-20.18 -20.156,-20.152 20.156,-20.156 20.156,20.156 20.176,20.152 20.156,20.18 20.157,20.152 20.156,20.157 20.176,20.16 -20.176,20.172 -20.156,-20.172 -20.157,-20.16" /><path
         id="path70"
         style="fill:#ffffff;fill-opacity:1;fill-rule:nonzero;stroke:none"
         d="m 544.363,342.758 -20.156,-20.156 -20.176,-20.168 -20.156,-20.164 -20.156,-20.157 20.156,-20.168 20.156,20.168 20.176,20.157 20.156,20.164 20.157,20.168 20.156,20.156 20.176,20.156 -20.176,20.176 -20.156,-20.176 -20.157,-20.156" /><path
         id="path72"
         style="fill:#ffffff;fill-opacity:1;fill-rule:nonzero;stroke:none"
         d="m 544.363,423.402 -20.156,-20.168 -20.176,-20.156 -20.156,-20.164 -20.156,-20.164 20.156,-20.156 20.156,20.156 20.176,20.164 20.156,20.164 20.157,20.156 20.156,20.168 20.176,20.157 -20.176,20.164 -20.156,-20.164 -20.157,-20.157" /><path
         id="path74"
         style="fill:#ffffff;fill-opacity:1;fill-rule:nonzero;stroke:none"
         d="m 544.363,504.047 -20.156,-20.156 -20.176,-20.176 -20.156,-20.156 -20.156,-20.157 20.156,-20.156 20.156,20.156 20.176,20.157 20.156,20.156 20.157,20.176 20.156,20.156 20.176,20.156 -20.176,20.176 -20.156,-20.176 -20.157,-20.156" /><path
         id="path76"
         style="fill:#ffffff;fill-opacity:1;fill-rule:nonzero;stroke:none"
         d="m 584.684,524.203 -20.157,20.164 -20.175,20.172 -20.157,20.156 -20.156,20.157 -20.16,-20.157 20.16,-20.156 20.156,-20.172 20.157,-20.164 20.175,-20.156 20.157,-20.156 20.156,-20.176 20.176,20.176 -20.176,20.156 -20.156,20.156" /><path
         id="path78"
         style="fill:#ffffff;fill-opacity:1;fill-rule:nonzero;stroke:none"
         d="m 665.328,524.203 -20.156,20.164 -20.156,20.172 -20.176,20.156 -20.156,20.157 -20.157,-20.157 20.157,-20.156 20.156,-20.172 20.176,-20.164 20.156,-20.156 20.156,-20.156 20.156,-20.176 20.176,20.176 -20.176,20.156 -20.156,20.156" /><path
         id="path80"
         style="fill:#ffffff;fill-opacity:1;fill-rule:nonzero;stroke:none"
         d="m 766.137,504.047 -20.16,20.156 -20.157,20.176 -20.175,20.156 -20.157,20.156 -20.152,20.157 -20.18,-20.157 20.18,-20.156 20.152,-20.156 20.157,-20.176 20.175,-20.156 20.157,-20.156 20.16,-20.157 20.16,20.157 -20.16,20.156" /><path
         id="path82"
         style="fill:#ffffff;fill-opacity:1;fill-rule:nonzero;stroke:none"
         d="m 0,584.695 20.1563,-20.156 20.1718,-20.172 20.1602,-20.152 20.1562,-20.16 20.1605,-20.164 20.172,-20.168 20.16,20.168 -20.16,20.164 -20.172,20.16 L 80.6445,544.367 60.4883,564.539 40.3281,584.695 20.1563,604.852 0,584.695" /><path
         id="path84"
         style="fill:#ffffff;fill-opacity:1;fill-rule:nonzero;stroke:none"
         d="m 181.453,524.203 -20.156,20.164 -20.156,20.172 -20.176,20.156 -20.156,20.157 -20.1567,-20.157 20.1567,-20.156 20.156,-20.172 20.176,-20.164 20.156,-20.156 20.156,-20.156 20.156,-20.176 20.176,20.176 -20.176,20.156 -20.156,20.156" /><path
         id="path86"
         style="fill:#ffffff;fill-opacity:1;fill-rule:nonzero;stroke:none"
         d="m 262.102,524.203 -20.157,20.164 -20.175,20.172 -20.157,20.156 -20.156,20.157 -20.16,-20.157 20.16,-20.156 20.156,-20.172 20.157,-20.164 20.175,-20.156 20.157,-20.156 20.156,-20.176 20.176,20.176 -20.176,20.156 -20.156,20.156" /><path
         id="path88"
         style="fill:#ffffff;fill-opacity:1;fill-rule:nonzero;stroke:none"
         d="m 342.746,524.203 -20.156,20.164 -20.156,20.172 -20.176,20.156 -20.156,20.157 -20.157,-20.157 20.157,-20.156 20.156,-20.172 20.176,-20.164 20.156,-20.156 20.156,-20.156 20.156,-20.176 20.176,20.176 -20.176,20.156 -20.156,20.156" /><path
         id="path90"
         style="fill:#ffffff;fill-opacity:1;fill-rule:nonzero;stroke:none"
         d="m 423.391,524.203 -20.157,20.164 -20.16,20.172 -20.172,20.156 -20.156,20.157 -20.16,-20.157 20.16,-20.156 20.156,-20.172 20.172,-20.164 20.16,-20.156 20.157,-20.156 20.156,-20.176 20.176,20.176 -20.176,20.156 -20.156,20.156" /><path
         id="path92"
         style="fill:#ffffff;fill-opacity:1;fill-rule:nonzero;stroke:none"
         d="m 504.035,524.203 -20.156,20.164 -20.156,20.172 -20.176,20.156 -20.156,20.157 -20.157,-20.157 20.157,-20.156 20.156,-20.172 20.176,-20.164 20.156,-20.156 20.156,-20.156 20.156,-20.176 20.176,20.176 -20.176,20.156 -20.156,20.156" /><path
         id="path94"
         style="fill:#ffffff;fill-opacity:1;fill-rule:nonzero;stroke:none"
         d="m 262.102,584.691 -20.157,-20.156 -20.16,-20.176 -20.172,-20.156 -20.156,-20.156 20.156,-20.156 20.172,20.156 20.16,20.156 20.157,20.156 20.156,20.176 20.176,20.156 20.156,20.157 -20.156,20.175 -20.176,-20.175 -20.156,-20.157" /><path
         id="path96"
         style="fill:#ffffff;fill-opacity:1;fill-rule:nonzero;stroke:none"
         d="m 262.102,665.336 -20.157,-20.156 -20.16,-20.157 -20.172,-20.175 -20.156,-20.157 20.156,-20.156 20.172,20.156 20.16,20.157 20.157,20.175 20.156,20.157 20.176,20.156 20.156,20.16 -20.156,20.156 -20.176,-20.156 -20.156,-20.16" /><path
         id="path98"
         style="fill:#ffffff;fill-opacity:1;fill-rule:nonzero;stroke:none"
         d="m 262.102,504.047 -20.157,-20.156 -20.16,-20.176 -20.172,-20.156 -20.156,-20.157 20.156,-20.156 20.172,20.156 20.16,20.157 20.157,20.156 20.156,20.176 20.176,20.156 20.156,20.156 -20.156,20.176 -20.176,-20.176 -20.156,-20.156" /><path
         id="path100"
         style="fill:#3db580;fill-opacity:1;fill-rule:nonzero;stroke:none"
         d="m 302.426,786.297 -20.156,-20.156 -20.176,-20.176 -20.16,-20.156 -20.133,-20.157 -20.18,-20.156 -20.152,-20.176 20.152,-20.136 20.18,20.136 20.133,20.176 20.16,20.156 20.176,20.157 20.156,20.156 20.152,20.176 -20.152,20.156" /><path
         id="path102"
         style="fill:#3db580;fill-opacity:1;fill-rule:nonzero;stroke:none"
         d="M 282.262,120.98 262.105,100.824 241.93,80.6484 221.789,60.4922 201.633,40.3359 181.461,20.1719 201.633,0.00390625 221.789,20.1719 l 20.141,20.164 20.175,20.1563 20.157,20.1562 20.156,20.1756 20.176,20.156 -20.176,20.157 -20.156,-20.157" /><path
         id="path104"
         style="fill:#3db580;fill-opacity:1;fill-rule:nonzero;stroke:none"
         d="m 262.105,181.461 -20.156,-20.156 -20.156,-20.176 -20.176,-20.156 -20.156,-20.16 20.156,-20.1567 20.176,20.1567 20.156,20.16 20.156,20.156 20.157,20.176 20.176,20.156 20.156,20.152 -20.156,20.18 -20.176,-20.18 -20.157,-20.152" /><path
         id="path106"
         style="fill:#3db580;fill-opacity:1;fill-rule:nonzero;stroke:none"
         d="m 262.105,262.102 -20.156,-20.157 -20.156,-20.152 -20.176,-20.18 -20.156,-20.152 20.156,-20.156 20.176,20.156 20.156,20.152 20.156,20.18 20.157,20.152 20.176,20.157 20.156,20.16 -20.156,20.172 -20.176,-20.172 -20.157,-20.16" /><path
         id="path108"
         style="fill:#3db580;fill-opacity:1;fill-rule:nonzero;stroke:none"
         d="m 262.105,342.75 -20.156,-20.156 -20.156,-20.16 -20.176,-20.172 -20.156,-20.16 20.156,-20.157 20.176,20.157 20.156,20.16 20.156,20.172 20.157,20.16 20.176,20.156 20.156,20.152 -20.156,20.176 -20.176,-20.176 -20.157,-20.152" /><path
         id="path110"
         style="fill:#3db580;fill-opacity:1;fill-rule:nonzero;stroke:none"
         d="m 262.105,423.391 -20.156,-20.157 -20.156,-20.156 -20.176,-20.176 -20.156,-20.152 20.156,-20.156 20.176,20.156 20.156,20.152 20.156,20.176 20.157,20.156 20.176,20.157 20.156,20.16 -20.156,20.172 -20.176,-20.172 -20.157,-20.16" /><path
         id="path112"
         style="fill:#b1d21a;fill-opacity:1;fill-rule:nonzero;stroke:none"
         d="m 584.688,241.938 -20.157,20.164 -20.176,20.168 -20.156,20.156 -20.152,20.168 -20.156,-20.168 20.156,-20.156 20.152,-20.168 20.156,-20.164 20.176,-20.157 20.157,-20.156 20.16,-20.176 20.172,20.176 -20.172,20.156 -20.16,20.157" /><path
         id="path114"
         style="fill:#b1d21a;fill-opacity:1;fill-rule:nonzero;stroke:none"
         d="m 665.336,241.938 -20.156,20.164 -20.16,20.168 -20.172,20.156 -20.16,20.168 -20.157,-20.168 20.157,-20.156 20.16,-20.168 20.172,-20.164 20.16,-20.157 20.156,-20.156 20.16,-20.176 20.168,20.176 -20.168,20.156 -20.16,20.157" /><path
         id="path116"
         style="fill:#b1d21a;fill-opacity:1;fill-rule:nonzero;stroke:none"
         d="m 766.145,221.781 -20.157,20.157 -20.16,20.175 -20.172,20.157 -20.156,20.156 -20.16,20.156 -20.172,-20.156 20.172,-20.156 20.16,-20.157 20.156,-20.175 20.172,-20.157 20.16,-20.156 20.157,-20.176 20.156,20.176 -20.156,20.156" /><path
         id="path118"
         style="fill:#b1d21a;fill-opacity:1;fill-rule:nonzero;stroke:none"
         d="M 0.0078125,302.426 20.1641,282.262 40.3398,262.094 60.4961,241.938 80.6523,221.77 l 20.1567,-20.157 20.175,-20.152 20.157,20.152 -20.157,20.157 -20.175,20.168 -20.1567,20.156 -20.1562,20.168 -20.1563,20.164 -20.1757,20.156 -20.1562875,-20.156" /><path
         id="path120"
         style="fill:#b1d21a;fill-opacity:1;fill-rule:nonzero;stroke:none"
         d="m 181.461,241.938 -20.16,20.164 -20.156,20.168 -20.172,20.156 -20.16,20.168 -20.1567,-20.168 20.1567,-20.156 20.16,-20.168 20.172,-20.164 20.156,-20.157 20.16,-20.156 20.156,-20.176 20.172,20.176 -20.172,20.156 -20.156,20.157" /><path
         id="path122"
         style="fill:#b1d21a;fill-opacity:1;fill-rule:nonzero;stroke:none"
         d="m 262.105,241.938 -20.156,20.164 -20.176,20.168 -20.156,20.156 -20.156,20.168 -20.156,-20.168 20.156,-20.156 20.156,-20.168 20.156,-20.164 20.176,-20.157 20.156,-20.156 20.157,-20.176 20.176,20.176 -20.176,20.156 -20.157,20.157" /><path
         id="path124"
         style="fill:#b1d21a;fill-opacity:1;fill-rule:nonzero;stroke:none"
         d="m 342.75,241.938 -20.156,20.164 -20.156,20.168 -20.176,20.156 -20.157,20.168 -20.156,-20.168 20.156,-20.156 20.157,-20.168 20.176,-20.164 20.156,-20.157 20.156,-20.156 20.16,-20.176 20.172,20.176 -20.172,20.156 -20.16,20.157" /><path
         id="path126"
         style="fill:#b1d21a;fill-opacity:1;fill-rule:nonzero;stroke:none"
         d="m 423.395,241.938 -20.157,20.164 -20.156,20.168 -20.176,20.156 -20.156,20.168 -20.156,-20.168 20.156,-20.156 20.156,-20.168 20.176,-20.164 20.156,-20.157 20.157,-20.156 20.156,-20.176 20.176,20.176 -20.176,20.156 -20.156,20.157" /><path
         id="path128"
         style="fill:#b1d21a;fill-opacity:1;fill-rule:nonzero;stroke:none"
         d="m 504.047,241.938 -20.156,20.164 -20.164,20.168 -20.168,20.156 -20.161,20.168 -20.16,-20.168 20.16,-20.156 20.161,-20.168 20.168,-20.164 20.164,-20.157 20.156,-20.156 20.152,-20.176 20.18,20.176 -20.18,20.156 -20.152,20.157" /><path
         id="path130"
         style="fill:#3db580;fill-opacity:1;fill-rule:nonzero;stroke:none"
         d="m 544.367,584.688 -20.156,-20.157 -20.172,-20.172 -20.16,-20.156 -20.156,-20.168 20.156,-20.152 20.16,20.152 20.172,20.168 20.156,20.156 20.16,20.172 20.157,20.157 20.171,20.156 -20.171,20.176 -20.157,-20.176 -20.16,-20.156" /><path
         id="path132"
         style="fill:#3db580;fill-opacity:1;fill-rule:nonzero;stroke:none"
         d="m 544.367,665.332 -20.156,-20.156 -20.172,-20.156 -20.16,-20.176 -20.156,-20.156 20.156,-20.157 20.16,20.157 20.172,20.156 20.156,20.176 20.16,20.156 20.157,20.156 20.171,20.16 -20.171,20.156 -20.157,-20.156 -20.16,-20.16" /><path
         id="path134"
         style="fill:#3db580;fill-opacity:1;fill-rule:nonzero;stroke:none"
         d="m 584.695,786.297 -20.156,-20.156 -20.176,-20.176 -20.156,-20.156 -20.156,-20.157 -20.156,-20.156 -20.176,-20.176 20.176,-20.136 20.156,20.136 20.156,20.176 20.156,20.156 20.176,20.157 20.156,20.156 20.157,20.176 -20.157,20.156" /><path
         id="path136"
         style="fill:#3db580;fill-opacity:1;fill-rule:nonzero;stroke:none"
         d="M 564.531,120.98 544.379,100.824 524.199,80.6484 504.047,60.4922 483.891,40.3359 463.73,20.1719 483.891,0.00390625 504.047,20.1719 l 20.152,20.164 20.18,20.1563 20.152,20.1562 20.157,20.1756 20.175,20.156 -20.175,20.157 -20.157,-20.157" /><path
         id="path138"
         style="fill:#3db580;fill-opacity:1;fill-rule:nonzero;stroke:none"
         d="m 544.367,181.461 -20.156,-20.156 -20.172,-20.176 -20.16,-20.156 -20.156,-20.16 20.156,-20.1567 20.16,20.1567 20.172,20.16 20.156,20.156 20.16,20.176 20.157,20.156 20.171,20.152 -20.171,20.18 -20.157,-20.18 -20.16,-20.152" /><path
         id="path140"
         style="fill:#3db580;fill-opacity:1;fill-rule:nonzero;stroke:none"
         d="m 544.367,262.102 -20.156,-20.157 -20.172,-20.152 -20.16,-20.18 -20.156,-20.152 20.156,-20.156 20.16,20.156 20.172,20.152 20.156,20.18 20.16,20.152 20.157,20.157 20.171,20.16 -20.171,20.172 -20.157,-20.172 -20.16,-20.16" /><path
         id="path142"
         style="fill:#3db580;fill-opacity:1;fill-rule:nonzero;stroke:none"
         d="m 544.367,342.75 -20.156,-20.156 -20.172,-20.16 -20.16,-20.172 -20.156,-20.16 20.156,-20.157 20.16,20.157 20.172,20.16 20.156,20.172 20.16,20.16 20.157,20.156 20.171,20.152 -20.171,20.176 -20.157,-20.176 -20.16,-20.152" /><path
         id="path144"
         style="fill:#3db580;fill-opacity:1;fill-rule:nonzero;stroke:none"
         d="m 544.367,423.391 -20.156,-20.157 -20.172,-20.156 -20.16,-20.176 -20.156,-20.152 20.156,-20.156 20.16,20.156 20.172,20.152 20.156,20.176 20.16,20.156 20.157,20.157 20.171,20.16 -20.171,20.172 -20.157,-20.172 -20.16,-20.16" /><path
         id="path146"
         style="fill:#3db580;fill-opacity:1;fill-rule:nonzero;stroke:none"
         d="m 544.367,504.035 -20.156,-20.152 -20.172,-20.18 -20.16,-20.152 -20.156,-20.16 20.156,-20.157 20.16,20.157 20.172,20.16 20.156,20.152 20.16,20.18 20.157,20.152 20.171,20.156 -20.171,20.176 -20.157,-20.176 -20.16,-20.156" /><path
         id="path148"
         style="fill:#b1d21a;fill-opacity:1;fill-rule:nonzero;stroke:none"
         d="m 584.688,524.203 -20.157,20.156 -20.176,20.176 -20.156,20.156 -20.152,20.157 -20.156,-20.157 20.156,-20.156 20.152,-20.176 20.156,-20.156 20.176,-20.156 20.157,-20.156 20.16,-20.176 20.172,20.176 -20.172,20.156 -20.16,20.156" /><path
         id="path150"
         style="fill:#b1d21a;fill-opacity:1;fill-rule:nonzero;stroke:none"
         d="m 665.336,524.203 -20.156,20.156 -20.16,20.176 -20.172,20.156 -20.16,20.157 -20.157,-20.157 20.157,-20.156 20.16,-20.176 20.172,-20.156 20.16,-20.156 20.156,-20.156 20.16,-20.176 20.168,20.176 -20.168,20.156 -20.16,20.156" /><path
         id="path152"
         style="fill:#b1d21a;fill-opacity:1;fill-rule:nonzero;stroke:none"
         d="m 766.145,504.035 -20.157,20.156 -20.16,20.176 -20.172,20.164 -20.156,20.157 -20.16,20.156 -20.172,-20.156 20.172,-20.157 20.16,-20.164 20.156,-20.176 20.172,-20.156 20.16,-20.152 20.157,-20.16 20.156,20.16 -20.156,20.152" /><path
         id="path154"
         style="fill:#b1d21a;fill-opacity:1;fill-rule:nonzero;stroke:none"
         d="M 0.0078125,584.691 20.1641,564.535 l 20.1757,-20.176 20.1563,-20.156 20.1562,-20.156 20.1567,-20.156 20.175,-20.176 20.157,20.176 -20.157,20.156 -20.175,20.156 -20.1567,20.156 -20.1562,20.176 -20.1563,20.156 -20.1757,20.157 -20.1562875,-20.157" /><path
         id="path156"
         style="fill:#b1d21a;fill-opacity:1;fill-rule:nonzero;stroke:none"
         d="m 181.461,524.203 -20.16,20.156 -20.156,20.176 -20.172,20.156 -20.16,20.157 -20.1567,-20.157 20.1567,-20.156 20.16,-20.176 20.172,-20.156 20.156,-20.156 20.16,-20.156 20.156,-20.176 20.172,20.176 -20.172,20.156 -20.156,20.156" /><path
         id="path158"
         style="fill:#b1d21a;fill-opacity:1;fill-rule:nonzero;stroke:none"
         d="m 262.105,524.203 -20.156,20.156 -20.176,20.176 -20.156,20.156 -20.156,20.157 -20.156,-20.157 20.156,-20.156 20.156,-20.176 20.156,-20.156 20.176,-20.156 20.156,-20.156 20.157,-20.176 20.176,20.176 -20.176,20.156 -20.157,20.156" /><path
         id="path160"
         style="fill:#b1d21a;fill-opacity:1;fill-rule:nonzero;stroke:none"
         d="m 342.75,524.203 -20.156,20.156 -20.156,20.176 -20.176,20.156 -20.157,20.157 -20.156,-20.157 20.156,-20.156 20.157,-20.176 20.176,-20.156 20.156,-20.156 20.156,-20.156 20.16,-20.176 20.172,20.176 -20.172,20.156 -20.16,20.156" /><path
         id="path162"
         style="fill:#b1d21a;fill-opacity:1;fill-rule:nonzero;stroke:none"
         d="m 423.395,524.203 -20.157,20.156 -20.156,20.176 -20.176,20.156 -20.156,20.157 -20.156,-20.157 20.156,-20.156 20.156,-20.176 20.176,-20.156 20.156,-20.156 20.157,-20.156 20.156,-20.176 20.176,20.176 -20.176,20.156 -20.156,20.156" /><path
         id="path164"
         style="fill:#b1d21a;fill-opacity:1;fill-rule:nonzero;stroke:none"
         d="m 504.047,524.203 -20.156,20.156 -20.164,20.176 -20.168,20.156 -20.161,20.157 -20.16,-20.157 20.16,-20.156 20.161,-20.176 20.168,-20.156 20.164,-20.156 20.156,-20.156 20.152,-20.176 20.18,20.176 -20.18,20.156 -20.152,20.156" /><path
         id="path166"
         style="fill:#3db580;fill-opacity:1;fill-rule:nonzero;stroke:none"
         d="m 262.105,584.688 -20.156,-20.157 -20.156,-20.172 -20.176,-20.156 -20.156,-20.168 20.156,-20.152 20.176,20.152 20.156,20.168 20.156,20.156 20.157,20.172 20.176,20.157 20.156,20.156 -20.156,20.176 -20.176,-20.176 -20.157,-20.156" /><path
         id="path168"
         style="fill:#3db580;fill-opacity:1;fill-rule:nonzero;stroke:none"
         d="m 262.105,665.332 -20.156,-20.156 -20.156,-20.156 -20.176,-20.176 -20.156,-20.156 20.156,-20.157 20.176,20.157 20.156,20.156 20.156,20.176 20.157,20.156 20.176,20.156 20.156,20.16 -20.156,20.156 -20.176,-20.156 -20.157,-20.16" /><path
         id="path170"
         style="fill:#3db580;fill-opacity:1;fill-rule:nonzero;stroke:none"
         d="m 262.105,504.035 -20.156,-20.152 -20.156,-20.18 -20.176,-20.152 -20.156,-20.16 20.156,-20.157 20.176,20.157 20.156,20.16 20.156,20.152 20.157,20.18 20.176,20.152 20.156,20.156 -20.156,20.176 -20.176,-20.176 -20.157,-20.156" /></g></g></svg>